<mxfile host="app.diagrams.net" modified="2023-05-12T00:50:54.735Z" agent="Mozilla/5.0 (Macintosh; Intel Mac OS X 10_15_7) AppleWebKit/537.36 (KHTML, like Gecko) Chrome/113.0.0.0 Safari/537.36" version="21.2.9" etag="l-TzM9nkiY1caGxTvJGl" type="github">
  <diagram name="第 1 页" id="oJkNEsKcCTzBUB0KT7qA">
    <mxGraphModel>
      <root>
        <mxCell id="0" />
        <mxCell id="1" parent="0" />
      </root>
    </mxGraphModel>
  </diagram>
</mxfile>
